# xmcd CD database file
# Copyright (C) 1993-1998 Ti Kan
# 
# Track frame offsets:
#     150
#     10870
#     27947
#     40087
#     54187
#     64087
#     73312
#     88275
#     99110
#     113335
#     125785
#     137737
#     152737
#     163622
#     176522
#     188647
#     200905
#     213015
# 
# Disc length: 2973 seconds
# 
# Revision: 1
# Processed by: cddbd v1.4b41PL1 Copyright (c) Steve Scherf et al.
# Submitted via: DiscPlay 4.0.4
# 
DISCID=f20b9b12
DTITLE=Hop Wilson - Houston Ghetto Blues
DYEAR=1900
DGENRE=
TTITLE0=My Woman Has a Black Cat Bone (Take 2)
TTITLE1=I'm A Stranger
TTITLE2=Dance To It (Chicken Stuff #2)
TTITLE3=I Ain't Got No Woman
TTITLE4=You Don't Move Me Anymore
TTITLE5=Rockin' In The Coconuts
TTITLE6=Need Your Love To Keep Me Warm
TTITLE7=My Woman Has a Black Cat Bone (Take 1)
TTITLE8=Merry Christmas Darling (Take 1)
TTITLE9=I Done Got Over
TTITLE10=Be Careful With The Blues
TTITLE11=Merry Christmas Darling (Take 2)
TTITLE12=A Good Woman In Hard To Find
TTITLE13=I Feel So Glad
TTITLE14=Why You Do The Twist
TTITLE15=I Met A Strange Woman
TTITLE16=Toot Toot Tootsie
TTITLE17=My Woman Done Quit Me
EXTD=
EXTT0=
EXTT1=
EXTT2=
EXTT3=
EXTT4=
EXTT5=
EXTT6=
EXTT7=
EXTT8=
EXTT9=
EXTT10=
EXTT11=
EXTT12=
EXTT13=
EXTT14=
EXTT15=
EXTT16=
EXTT17=
PLAYORDER=
